<svg width="402" height="428" viewBox="0 0 402 428" fill="none" xmlns="http://www.w3.org/2000/svg">
<path fill-rule="evenodd" clip-rule="evenodd" d="M241.5 43C253.374 43 263 33.3741 263 21.5C263 9.62588 253.374 0 241.5 0C229.626 0 220 9.62588 220 21.5C220 33.3741 229.626 43 241.5 43ZM381 22.5C381 34.3741 371.374 44 359.5 44C347.626 44 338 34.3741 338 22.5C338 10.6259 347.626 1 359.5 1C371.374 1 381 10.6259 381 22.5ZM194 288.5C194 318.047 170.047 342 140.5 342C110.953 342 87 318.047 87 288.5C87 258.953 110.953 235 140.5 235C170.047 235 194 258.953 194 288.5ZM380.5 129C392.374 129 402 119.374 402 107.5C402 95.6259 392.374 86 380.5 86C368.626 86 359 95.6259 359 107.5C359 119.374 368.626 129 380.5 129ZM397 219.5C397 231.374 387.374 241 375.5 241C363.626 241 354 231.374 354 219.5C354 207.626 363.626 198 375.5 198C387.374 198 397 207.626 397 219.5ZM198.322 183.53C188.559 173.767 188.559 157.938 198.322 148.175L237.403 109.094L283.175 63.3223C292.938 53.5592 308.767 53.5592 318.53 63.3223C328.294 73.0854 328.294 88.9146 318.53 98.6777L260.57 156.638L233.678 183.53C223.915 193.294 208.085 193.294 198.322 183.53ZM230.322 223.175C220.559 232.938 220.559 248.767 230.322 258.53C240.085 268.294 255.915 268.294 265.678 258.53L295.626 228.582L350.53 173.678C360.294 163.915 360.294 148.085 350.53 138.322C340.767 128.559 324.938 128.559 315.175 138.322L272.459 181.038L230.322 223.175ZM210.769 54.4336C214.322 58.2371 216.459 62.8548 217.202 67.6374C218.431 75.5417 215.852 83.8962 209.566 89.7685L209.385 89.5746C209.566 89.7686 209.566 89.7687 209.566 89.7687L209.564 89.7708L209.554 89.7804L209.509 89.8219L209.327 89.9923C209.165 90.1443 208.921 90.3727 208.599 90.674C207.956 91.2767 207.002 92.171 205.769 93.3299C203.304 95.6479 199.721 99.0234 195.27 103.24C186.364 111.674 173.993 123.462 160.133 136.871C132.299 163.799 98.8777 196.864 75.4119 222.412C50.5494 249.48 46.8826 278.236 52.0805 303.222C57.5819 329.667 72.8402 350.646 83.2862 358.718C94.2055 367.156 113.351 374.554 134.938 376.542C156.47 378.524 176.434 374.774 190.193 365.659C207.479 354.207 234.136 328.282 257.892 303.326C269.428 291.207 279.756 279.881 287.204 271.579C290.924 267.432 293.915 264.051 295.969 261.716C296.996 260.548 297.787 259.643 298.318 259.035C298.583 258.731 298.782 258.502 298.913 258.351L299.058 258.184L299.091 258.146L299.097 258.139L299.097 258.139L299.098 258.138C299.098 258.138 299.098 258.138 299.143 258.178C303.728 252.576 310.696 249 318.5 249C332.307 249 343.5 260.193 343.5 274C343.5 280.84 340.753 287.038 336.303 291.552C336.212 291.656 336.111 291.771 336.001 291.898C335.427 292.556 334.59 293.513 333.515 294.735C331.366 297.179 328.264 300.685 324.421 304.968C316.744 313.525 306.072 325.23 294.108 337.799C270.864 362.218 240.521 392.293 217.807 407.341C191.566 424.726 159.058 428.974 130.353 426.331C101.704 423.693 72.8493 413.841 52.7139 398.282C32.1051 382.357 10.8634 350.586 3.12851 313.406C-4.90993 274.765 1.45058 229.02 38.5881 188.588C63.1223 161.878 97.4511 127.943 125.367 100.936C139.382 87.3765 151.886 75.463 160.887 66.9378C165.388 62.6742 169.017 59.2554 171.524 56.8989C172.777 55.7206 173.75 54.8077 174.412 54.1875C174.743 53.8773 174.996 53.6404 175.168 53.4799L175.363 53.297L175.414 53.2494L175.428 53.2367L175.432 53.2331C175.433 53.2321 175.434 53.2315 192.5 71.5L175.434 53.2315C185.523 43.806 201.343 44.3442 210.769 54.4336Z" fill="white"/>
</svg>
